<mxfile host="65bd71144e">
    <diagram id="eq-va9jUGTlsY4EYPArv" name="Page-1">
        <mxGraphModel dx="878" dy="260" grid="1" gridSize="10" guides="1" tooltips="1" connect="1" arrows="1" fold="1" page="1" pageScale="1" pageWidth="850" pageHeight="1100" background="#ffffff" math="0" shadow="0">
            <root>
                <mxCell id="0"/>
                <mxCell id="1" parent="0"/>
                <mxCell id="6" value="User" style="shape=umlActor;verticalLabelPosition=bottom;verticalAlign=top;html=1;outlineConnect=0;" parent="1" vertex="1">
                    <mxGeometry x="30" y="190" width="50" height="80" as="geometry"/>
                </mxCell>
                <mxCell id="9" value="" style="endArrow=classic;html=1;entryX=0;entryY=0.5;entryDx=0;entryDy=0;" parent="1" target="14" edge="1">
                    <mxGeometry width="50" height="50" relative="1" as="geometry">
                        <mxPoint x="90" y="239.5" as="sourcePoint"/>
                        <mxPoint x="180" y="239.5" as="targetPoint"/>
                    </mxGeometry>
                </mxCell>
                <mxCell id="57" style="edgeStyle=none;html=1;exitX=1;exitY=0.5;exitDx=0;exitDy=0;" parent="1" source="10" edge="1">
                    <mxGeometry relative="1" as="geometry">
                        <mxPoint x="500" y="69.86206896551721" as="targetPoint"/>
                    </mxGeometry>
                </mxCell>
                <mxCell id="10" value="postgres" style="shape=datastore;whiteSpace=wrap;html=1;" parent="1" vertex="1">
                    <mxGeometry x="390" y="30" width="70" height="80" as="geometry"/>
                </mxCell>
                <mxCell id="45" style="edgeStyle=none;html=1;entryX=0.5;entryY=1;entryDx=0;entryDy=0;exitX=1;exitY=0.5;exitDx=0;exitDy=0;" parent="1" source="14" target="10" edge="1">
                    <mxGeometry relative="1" as="geometry">
                        <Array as="points">
                            <mxPoint x="425" y="240"/>
                        </Array>
                    </mxGeometry>
                </mxCell>
                <mxCell id="49" style="edgeStyle=none;html=1;entryX=0;entryY=0.5;entryDx=0;entryDy=0;" parent="1" source="14" target="73" edge="1">
                    <mxGeometry relative="1" as="geometry">
                        <mxPoint x="570" y="240" as="targetPoint"/>
                    </mxGeometry>
                </mxCell>
                <mxCell id="14" value="/api/v1/contacts/send/queue" style="shape=manualInput;whiteSpace=wrap;html=1;" parent="1" vertex="1">
                    <mxGeometry x="180" y="200" width="190" height="80" as="geometry"/>
                </mxCell>
                <mxCell id="40" value="contacts" style="swimlane;childLayout=stackLayout;resizeParent=1;resizeParentMax=0;startSize=20;html=1;" parent="1" vertex="1">
                    <mxGeometry x="501" y="30" width="525" height="75" as="geometry">
                        <mxRectangle x="500" y="35" width="90" height="30" as="alternateBounds"/>
                    </mxGeometry>
                </mxCell>
                <mxCell id="41" value="id" style="swimlane;startSize=20;html=1;" parent="40" vertex="1">
                    <mxGeometry y="20" width="50" height="55" as="geometry">
                        <mxRectangle y="20" width="40" height="50" as="alternateBounds"/>
                    </mxGeometry>
                </mxCell>
                <mxCell id="65" value="1" style="text;html=1;align=center;verticalAlign=middle;resizable=0;points=[];autosize=1;strokeColor=none;fillColor=none;" parent="41" vertex="1">
                    <mxGeometry x="15" y="20" width="30" height="30" as="geometry"/>
                </mxCell>
                <mxCell id="42" value="date" style="swimlane;startSize=20;html=1;" parent="40" vertex="1">
                    <mxGeometry x="50" y="20" width="75" height="55" as="geometry"/>
                </mxCell>
                <mxCell id="66" value="31/05/2023" style="text;html=1;align=center;verticalAlign=middle;resizable=0;points=[];autosize=1;strokeColor=none;fillColor=none;" parent="42" vertex="1">
                    <mxGeometry x="-5" y="20" width="80" height="30" as="geometry"/>
                </mxCell>
                <mxCell id="43" value="hour" style="swimlane;startSize=20;html=1;" parent="40" vertex="1">
                    <mxGeometry x="125" y="20" width="60" height="55" as="geometry"/>
                </mxCell>
                <mxCell id="67" value="15:00" style="text;html=1;align=center;verticalAlign=middle;resizable=0;points=[];autosize=1;strokeColor=none;fillColor=none;" parent="43" vertex="1">
                    <mxGeometry x="10" y="20" width="50" height="30" as="geometry"/>
                </mxCell>
                <mxCell id="61" value="email" style="swimlane;startSize=20;html=1;" parent="40" vertex="1">
                    <mxGeometry x="185" y="20" width="105" height="55" as="geometry"/>
                </mxCell>
                <mxCell id="68" value="user@gmail.com" style="text;html=1;align=center;verticalAlign=middle;resizable=0;points=[];autosize=1;strokeColor=none;fillColor=none;" parent="61" vertex="1">
                    <mxGeometry y="20" width="110" height="30" as="geometry"/>
                </mxCell>
                <mxCell id="62" value="Telephone" style="swimlane;startSize=20;html=1;" parent="40" vertex="1">
                    <mxGeometry x="290" y="20" width="95" height="55" as="geometry"/>
                </mxCell>
                <mxCell id="69" value="12991708065" style="text;html=1;align=center;verticalAlign=middle;resizable=0;points=[];autosize=1;strokeColor=none;fillColor=none;" parent="62" vertex="1">
                    <mxGeometry x="-5" y="20" width="100" height="30" as="geometry"/>
                </mxCell>
                <mxCell id="63" value="message" style="swimlane;startSize=20;html=1;" parent="40" vertex="1">
                    <mxGeometry x="385" y="20" width="140" height="55" as="geometry"/>
                </mxCell>
                <mxCell id="70" value="hello, &lt;br&gt;can you contact me ?" style="text;html=1;align=left;verticalAlign=middle;resizable=0;points=[];autosize=1;strokeColor=none;fillColor=none;" parent="63" vertex="1">
                    <mxGeometry x="10" y="15" width="140" height="40" as="geometry"/>
                </mxCell>
                <mxCell id="74" value="" style="group" parent="1" vertex="1" connectable="0">
                    <mxGeometry x="570" y="180" width="130" height="120" as="geometry"/>
                </mxCell>
                <mxCell id="73" value="" style="rounded=1;whiteSpace=wrap;html=1;" parent="74" vertex="1">
                    <mxGeometry width="130" height="120" as="geometry"/>
                </mxCell>
                <mxCell id="72" value="" style="shape=image;verticalLabelPosition=bottom;labelBackgroundColor=default;verticalAlign=top;aspect=fixed;imageAspect=0;image=data:image/png,iVBORw0KGgoAAAANSUhEUgAAAaQAAAGkBAMAAACMYkwGAAAAMFBMVEX6gTL/ZgD6+vr59O/9zqz8XQD9ZAL+7ODl6ef2o2j849H62MD6t4r////M09CotK7x90MkAAAACXBIWXMAAAsTAAALEwEAmpwYAAAR90lEQVR4nO2dX2wcx33HKVtHQY4NcODsFI7zoEoBajtmLItBYhhm1bgiVdsxcAt0DyCSBw6QHcC2HqQiaCDbfMqLXyzFtemgSASUiVHDdgLEiKwgdQiojWlAKVMQdwT4dymgefGLTKB+8UvEzr/9c/tndo/H4+wwvx8S625ulzef+8785jd/dmYoOHA2ZDoDe2+AZIMBkg0GSDYYINlgpUgb14dQxkaO/mH0eKl1nsq5FY28MW4WabnhYZLJFqatL7T1PKeOr/zIo5k7KcHec4NlKkFaabA8pJEwQ6Le62VIf+fRHCT2P++cSaRrLYJzNCLs/81f6pkeZkRZfblO1H/dHNJyC+VkiyMh6t+lL3oLNO9eygzR5qgxpA8oYbnK+a0JIbh5Ske02SJ5Isk0/19MIbWHaYu2sJtXfDDxr+iQrrFbs1VJiEyw84+mkDaZt8tXiTsI+oKG6ESD6ZiHJCoimf6lIaR/zq3fkU1rKtMyK3eaW/0/GkKa0CPRV4uR1oqKndLqDkNIjawD7/6pi5HO638N9B0zSCtUj+QU+4fRD7QiIfRdQ0gtrP2tnXuKkRb0SHjKDNJ6GdKdGiSsV3iAja0OicUO2gpRgqT3lgMj6g/piK7g6ZEMqbTR0pcerUq6G82ptOGWIOlUKkMypFIZ0gFUqR8kUMkGJFDJBiRQaZ+QMKhkgUoHsS7dASqBSiaQQCVQyQgSqAQqGUEClWxQqR8kUMkGJFDJBiRQab+QoF0ClYwggUqgkhEkUMkGlfpBApVsQAKVbEAClWxAApVsQAKVbEAClWxAApVsQAKV9gtJt/TdUpX6QRoYEagEKoFKtiOBSjYggUo2IIFKNiCBSjYg1VMlDCqBSiaQQCVQyQgSqAQqGUEClUAlI0igEqhkBAlUApWMIIFKoJIRJFAJVDKCBCqBSkaQQCVQyQgSqAQqGUEClQ66SlP1ValgM/typIER9alS4e781qp0R2HBOz6r39UZNQdG1B/S84VEJ4ZLVKLj9UQ6VwB06vhX9Hu+I+Q/W0skVHTSxanjx8qQnMGddNGXSk7R5vyjH5ch4cGddNEXEv5eAdJXSw4bYNYc2EkXfRU82noy/6iLj1tlSNT7Qh2RMPWnfhZ0NzDt9uho+7deqUiUtAZ1vE9/SNQ/+tG777334YcfXr169UxoN/zycocobS6e2YU9PT5IJH4+lN+iKfM9r5V7Wkzq5yCO56XvrWJDZwepEj/oJvOV/JQbVIrks3sJxr0T+V6z5LyZPgsepeI/JPpGcbIXIy114jjvwKlyY1/hTM0MDollHSPF0fW9OaeF5eRNnFfVOxL1jgwMqR9jhRbpzzoptpJzw0wh9WNYf3qTjUgEP3/wkLR9YhuRmJMdP2BIrHGaP2BIhPVqDhoS9a8cNCTiHDQkDEiAZMIACZCMGCABkhEDJEAyYoAESEYMkADJiAESIBkxQAIkIwZIgGTEAAmQjBggAZIRAyRAMmKABEhGDJAAyYgBEiAZMUDaVyS+dD61ar7KyvE6I6Hssxk4A5m1GiNhJJ676P6OcqI6I6kHL1L5pTarlPfQBU2rlndbfZH4o0K+l7aW1UiEto4upuzGkFf2DFCNkZDTPJt5bKf9N0/5JbfVFAmzWkOn5vO+tv1OS//gXU2RuGdrPVnwxb9q6W+tLZJf+LDwesNGJNb6aB7pPq+VqaZImOAXir95paFzenVFotoHdiZtRCLarUbWXPuQqP4RxY5uo5KaIiHtU1VBsICLu061RdJvnvLvFiI1x7VISxo3XlMk/aOxzD+0ip9zryvSd/VIy25xmGcp0gYp7mLUFalk05511pk6aEhucQfDViRNj6mmSKgMSRPk2YoEKtmABCrZgAQq2YAEKtmABCrZgAQq2YAEKtmABCrZgAQq2YAEKtmABCrVAAl/rwTJPpX+MpFsG+ZHJUgbtHgRW12RStzDhmZ/5Loilc8vHTSkZc2BBTVFoiVIm65rm3ugJcdkLVk4C0jntUgn7UNC+m3OgwliHRL279QiNZB9M+pEu5aDOzzbVEJUW5nOUwvrEnF0Ja+hOzGipkh8SXXxN6+5FiIh7UFZC9oTMOqLhJozBV98sWXl0ndmzrn8CGK5oT+gpcZI1D+cx/T1hqs/eaXOSNSb/p/fjH3z3YT9/PHrjps5V8caJNTCNPdUqZKHHOuMpE5vyp5KhW0teBhLpG5K/p7Y6sR3a4AESEYMkADJiAESIBkxQAIkIwZIgGTEAAmQjBggAZIRAyRAMmKABEhGDJAAyYgBEiAZMUACJCMGSIBkxAAJkIwYIAGSEQOkg45EcNkG7GaMaDd9LVHJdOZzjQBSFxKtJVMfSOs1RSp5RE2H1CE1RdI/SKhDCoaxfsG2IcMYz+wWaaGeSBRrt1fXIn2DL0OntcKihLW0/nd2jbTZ4ovra4UkTqGiV3aNFMxyIv2TN/ts4okMOrN7pPOtukV5/BETqjlOohSpM+wypXOfXjFk/LnI1nwfSMGmTzPnWBk1gqh3lz7PJUjBO43MmU+GrfXGeH9Iwddu/Gut7Kf/UJbjUiT7DJBsMECywQDJBgMkGwyQzFjnsbHx6leXIz2kti34J801j7/7s8xdP8/+nfRFzE6MjY2dSieytLF4J4jOpR1mn+g3zEpYOdL7KqwfOvp04TWT6EgqZS6zpx/7O3+VvfM0y+3tVFqHI9wK361u7wi7XZWpHOla2Pvy3cPjBddM0HRu52h6T79JSr+UvZMj7aTSVpNIbUW0s/N5aValVUCKul/YP1xwzQTOIJGsSpmLAoU03p22lUS6vBPZrfTN+VYJSfS8eN/Wez3/molMmcpDQkUqpfL6SCJtNSbKFNACq4Q0xA17pPCcuD5VSiFdTqTx17c/+eFjl6rLVAWpySvmiZduOAQ5d+ReUwVJU5c+607bjrPPPcXtV/mrr1WWqQoSGZevXsZFW0RWUykqnetXotTTO7fTFb+9w9MkEq9Wr4ZXRi/1VgVpely9PO8iknvIbBWkh158MWzaPr4nSmVI26lfn1Wfz0Ok7Zi3w17/b2lug95UCoJZlD/xWwUptoteFxKrLl1NDlPmTwqpk1TmdEU/3pNKwUmC7827pjekWdyF9EiqQLFa80OFtJWsP9z5VWlue1Np2c3f6LdHJKcLaSvlypgaD6ik011lbbtaZepNpc5wvn/oSyX26/9f8uNtkXRLvkxCXK7mxntTiVWm3I36+lKpk6ojMVK7O1jayrj7XOtNpWAB5U7A9aVSu9vlMcLPFNJqN+xqtZapR5UmUe6uuH2pxItX4lOOo5BSsrSrheM9qjSZHxL1pRJ3AokasxUj3UxVnu1MhJtndVCp2+Uxnz6ukE6nkC5Xcnm7r0sPXT3zTBgOSKSVq2ei2EIidd46k+7cBlmVupFYvgOFlEao5vJ26/FWnjrke62Rn8h3AukrQ5438ock0saPfC+8JFhZXGR/p/3txcVhfPcis/8OkVa7qsy2TLkVZAvaI3uG1NUuSaTOf3p8Wzvq3hUhrTdaPOG/YqSVN1kny2/9WKYsey2mYdvhPS+f98CmQqQg6dja/E2MlA6Vulqw3SPFKm0Qtaf+v7XEfD1C7rMh0rdchAnCyn1wJHaRSJmXSISHvO34zPcYabs77PlziJR22nuHFKu05Eo/sO6wHi4awizP9yukDYr86eEWUvsAM6SVBvLRIZZyv/w5EGJIHb4VMBKbF8ZIlxMFTFSsYqQKgWtvKk2qSPyki+jht7/53mtEOvUJfO8F4tz99ks8YVQhLbnOl3/9+HUXuTM8ZRkR9m+b9Y8RGuHd5KMRUjJwFa8lUieNtLpnSJFK6xjJNVazCH+R/8uEcPg6sgl07yx+jl223kD4ikKaQNOMYYVdK7rCUqVgbOzULL5zLBy+E0hJl3ea1x+JlIkW9g4pUulXrqwAKzjsCh4jIr8T+DCmYo3ceRd/SSE1pKIPujLUlSqJHyTVLgXJwHVbJdzKIagWEfWi0sOOqinLbhiQd7AY9plwhsg5kcCEnJJII6FzbMg/oFQKsu2S9HLSWMD3+T4gKZVebrCKInK15uJwdPVN4QInUNTdnZU5n2M+4Ej4B0Th1KiUcHkd0UYVIGUq166R+I984q0bjot82Qwd8zwFEMwJLRhSmN9H5SJujvSsTGFukiNoVBIRg7QIZrBIfBzvEB/G8++TLd+DQ0Mqu6wyKaSwa8gUvFMihaHTMhGFU6dSHLhuJZAyPnsPkVhjzxcS4aPZ4aEltymRwrh1A6MXJFIYt6qusE6l2OU9IpqowSOpIfEv5gTha65UKRo5ajcEwBzB0d77LDAc1au0FY0xXBZdov1CQiM/zkOSKjlhSVSR7VziuYgJREb1KnWiwFU6iv1Boh7BbnZ59qZSCc2EKQvCnTCVIsg5Ed3pVAq2VeaVOx+4eyD/8eLb77513UF4KlP0QpXinuE1gcfqUlTx/lrg6VSKvLgIWvfJiTO7SHPGWkOV4oGjOZH1OZIIdglvmLQqnVaB61Y0jrIvTW3wLZI9VG1TqRQjPSo0mSPxUBKLX/9YotJN5cXVv4MPiGbkKxYHdQ95dV5877dKpXgac0khxZBrLldXq1LoxVWbu39hKwuq52Oe310f4qeKNDNITi6SVqUwcN2O3g64czGjXs4lKtP3X3M8cVSNVCle5yxrzhyJR5o3y1UKA1fl+SRSO6cLWGG4tSeV2M8dZuaiE56fJlV6PkZyc5DuKVFJydNRYimk9MzTHnbUZ9TLZTccr9vEfKBELLeeSiPlqXRPiUqqEoXD+wXDKTeli98DpEgl1vWTdaYzSxAdeeOZ3/zgoluuUoW6pPrqW8rxDX7QayZ8HY55nWT9jLtnZHazKkmPl0bSqyRdXtg87ePQ5CyaVv/iL4+r7EqV4gbrZIET16skw4bL8bu8AeRqc2a9qTSh+twEkXmZsqT6SzHSBcI9/YUEUoXogXu3z7riIs6SM8yf0xnYDVKs0pwcRlmK5zfD/lJczN4XMd6jZDpKOSZaKr1Kwn23QycdT8YkPVy1EK9HlU6KzAUX4vZJqvF+QhOp5LEE0gWC5stUEmVuNew27eOU2ZKoFbwvMR992hSZjgFkfVsicXdjUuhWohL3DFHnNp7YTDLc3MOJzShzsoXhXaKwTMsO3zESY0uvuObG/aVZgV2iEvff0ajrPk4/L8uxktDxiZaKZ3cpBljHop7JIEiYmu4oUYkrFA0UhUjdLq/iipveVGIE9wfJefU1Of6aAGDy8NUeG/HYw7IcWSlRidX9P0cBUIjU1VXfqrhysjeV2sMifIhVmpQxHvPq4QiRGsdj0sROUQwyxyot5KnEh1nD7noyMIqFubyXC25mojdSn4XwB9/AMsZrD0e6zSrXMaumMMR0Bx+ziFVaSMzsRki8TYpCuBApuSxqteqCvB4nNheEPh+ETpz1c2WvcCFse1kpk3DXRPsayDkB/gdilSbRuRyk5MLCCIkvoJR+XaxxrVLuelVJvmENjcjUOxSNyBaJhQx3hZByISEL9cR8DV/xlpq5eD8SMIl0cycuZRGSWIz8p1G1DrmKC+9ZpQuETzAxp0B/curxpxzi/FRED8w/IDF/+TBGShzm+Ygobw0kq06sEmuwo7MoYySxSHc0hSS1u/3pp2Jx66snHnvl0qd7gZRQScU2rJ/kjiCPoOYTrixnDeTcd/bELxoEhQNjCwg3zx7//iGiDp6MVWK/CPvkpcVupNXESs/VZBGMTa6v3gukhEoyqOY+APFH8p0jMhIXxctHhxwXOeEi5QdbyCEjrKvoyCIZq8QEdMLppxipvdPlCkJP8Lc7KSuNiXpUSYUPJ1tylHxqfFOptNIgYordeS6qJrM8hc+oy9tjlYKPxScpJO7dwsqSQEouFN/ZI5U+8Nzx6M2G53EH3H6TM/nNZ4M1T42DPeHwNQP+dBQGBZsNeZGsW8Gy54bjr8vikzRSIt5JIgWX9hzp5cWPYqTO4uLvBdpr2CP3/T17sfiR+ugXh3yPHH0ycecTfFJq5Kx6J1enqL/JrpWLBB649EqY+MAnl8JmtX3pUvydwYlXPk3YJ/0j5Vvn6uIz491JD3178enupJUzmYvCT363+NGvd/nVZWbF80u9GSDZYIBkgwGSDQZINtj/A8MuaFnKMxkSAAAAAElFTkSuQmCC;" parent="74" vertex="1">
                    <mxGeometry x="15" y="10" width="100" height="100" as="geometry"/>
                </mxCell>
            </root>
        </mxGraphModel>
    </diagram>
</mxfile>